<svg xmlns="http://www.w3.org/2000/svg" version="1.1" xmlns:xlink="http://www.w3.org/1999/xlink" xmlns:svgjs="http://svgjs.com/svgjs" width="73.9" height="70.3"><svg version="1.1" id="SvgjsSvg1000" xmlns="http://www.w3.org/2000/svg" xmlns:xlink="http://www.w3.org/1999/xlink" x="0px" y="0px" viewBox="0 0 73.9 70.3" style="enable-background:new 0 0 73.9 70.3;" xml:space="preserve">
<g>
	<path d="M60.7,22.7c0.2,5.1-1.2,9.8-3.7,13.8c-0.9,1.4-3,0.7-2.9-0.9c0,0,0,0,0-0.1c0-13.1-10.7-23.8-23.8-23.8
		c-4.5,0-8.7,1.3-12.3,3.5c-1.4,0.8-3-0.7-2.3-2.1C19.8,4.9,28.5-0.5,38.3,0C50.4,0.7,60.2,10.6,60.7,22.7z M70,59.6
		c5.4-8.3,5-18.5,0-26.1c-0.9-1.3-3-0.7-2.9,0.9c0.1,4.2-0.9,8.5-3.2,12.4c-6.6,11.4-21.2,15.3-32.5,8.7l0,0c-1.4-0.8-3,0.7-2.3,2.1
		c2.2,4.2,5.6,7.7,10.1,10.1C49.9,73.2,63.4,69.7,70,59.6z M2.5,57.2C7,66,16,70.8,25.1,70.2c1.6-0.1,2.1-2.2,0.7-3
		c-3.7-2-6.9-5-9.2-9c-6.6-11.4-2.7-26,8.7-32.5l0,0c1.4-0.8,0.9-2.9-0.7-3c-4.7-0.2-9.5,1-13.8,3.7C0.7,33-2.9,46.4,2.5,57.2z"></path>
</g>
</svg><style>@media (prefers-color-scheme: light) { :root { filter: none; } }
</style></svg>